<?xml version="1.0" encoding="UTF-8"?>
<svg version="1.1" xmlns="http://www.w3.org/2000/svg" width="500" height="500">
<path d="M0 0 C0.75754688 0.00234117 1.51509376 0.00468233 2.2955966 0.00709444 C3.49731166 0.00491428 3.49731166 0.00491428 4.72330379 0.00269008 C7.44258995 -0.00099683 10.16182099 0.00252886 12.88110685 0.00595194 C14.83641289 0.00480118 16.7917187 0.00321397 18.74702406 0.0012247 C24.14718589 -0.00297486 29.5473302 -0.00087513 34.94749212 0.00221092 C40.76077348 0.00446226 46.5740517 0.00098673 52.38733244 -0.00176901 C63.78626414 -0.00622856 75.18518927 -0.00524942 86.58412123 -0.00235637 C95.84372083 -0.00010305 105.10331858 0.0002105 114.36291838 -0.00088018 C115.67801539 -0.00103341 116.99311241 -0.00118665 118.34806085 -0.00134452 C120.3495805 -0.00158409 122.35110016 -0.00182366 124.35261981 -0.00207142 C149.38633088 -0.00513329 174.42003836 -0.00235241 199.45374888 0.00302548 C221.71501857 0.0077714 243.97628253 0.00734679 266.23755217 0.00256449 C291.22425884 -0.00278531 316.21096234 -0.00491618 341.19766951 -0.00182325 C343.85927916 -0.00150468 346.5208888 -0.00119031 349.18249846 -0.00088018 C350.49225102 -0.00072591 351.80200359 -0.00057163 353.15144563 -0.00041268 C362.40585659 0.00045275 371.66026554 -0.00101096 380.91467619 -0.00335974 C392.18418714 -0.00615692 403.45369113 -0.00542121 414.72320127 -0.00007899 C420.47914339 0.00255914 426.23507387 0.00356122 431.99101591 0.00027186 C437.251172 -0.00268884 442.51130556 -0.00110212 447.77145958 0.00424941 C449.68327849 0.00537457 451.59509927 0.00478025 453.506917 0.00237362 C456.08791255 -0.00062833 458.66882896 0.00241199 461.24982023 0.00709444 C462.00736711 0.00475328 462.76491399 0.00241211 463.54541683 0 C468.65855808 0.01878524 468.65855808 0.01878524 469.77270842 1.13293558 C469.77270842 47.66293558 469.77270842 94.19293558 469.77270842 142.13293558 C312.69270842 142.13293558 155.61270842 142.13293558 -6.22729158 142.13293558 C-6.22729158 0.02287854 -6.22729158 0.02287854 0 0 Z M-2.22729158 4.13293558 C-2.22729158 48.35293558 -2.22729158 92.57293558 -2.22729158 138.13293558 C152.21270842 138.13293558 306.65270842 138.13293558 465.77270842 138.13293558 C465.77270842 93.91293558 465.77270842 49.69293558 465.77270842 4.13293558 C311.33270842 4.13293558 156.89270842 4.13293558 -2.22729158 4.13293558 Z " fill="#535353" transform="translate(18.227291584014893,178.86706441640854)"/>
<path d="M0 0 C6.39375 -0.0825 12.7875 -0.165 19.375 -0.25 C21.37224121 -0.28641602 23.36948242 -0.32283203 25.42724609 -0.36035156 C45.31054384 -0.57221976 45.31054384 -0.57221976 52.5 6.4375 C55.76526527 12.0156615 56.75117189 16.55813196 56 23 C54.50045052 26.78457727 52.55169866 29.84075404 50 33 C50.763125 33.70125 51.52625 34.4025 52.3125 35.125 C56.22766864 39.31331994 58.15346637 42.75938931 58.375 48.5 C58.16595968 53.49188286 56.96972931 56.97190834 53.41796875 60.62890625 C46.92954131 66.49534936 41.65469244 67.29219836 33.10546875 67.1953125 C32.26520142 67.19329834 31.42493408 67.19128418 30.5592041 67.18920898 C27.43524681 67.17878405 24.31136764 67.15086154 21.1875 67.125 C10.6996875 67.063125 10.6996875 67.063125 0 67 C0 44.89 0 22.78 0 0 Z M20 15 C20 18.63 20 22.26 20 26 C21.93719378 26.05406122 23.87481921 26.09282025 25.8125 26.125 C26.89144531 26.14820313 27.97039062 26.17140625 29.08203125 26.1953125 C32.19402868 26.23023717 32.19402868 26.23023717 35 24 C36.0950504 21.47296063 36.15295704 20.4118074 35.1875 17.8125 C34.11878013 15.84977807 34.11878013 15.84977807 32 15 C29.95944995 14.92934383 27.91665743 14.91578024 25.875 14.9375 C24.77929688 14.94652344 23.68359375 14.95554688 22.5546875 14.96484375 C21.29011719 14.98224609 21.29011719 14.98224609 20 15 Z M20 41 C20 44.63 20 48.26 20 52 C22.27024968 52.08097324 24.54132075 52.13917704 26.8125 52.1875 C28.70935547 52.23970703 28.70935547 52.23970703 30.64453125 52.29296875 C33.91975515 52.27372639 33.91975515 52.27372639 35.9609375 50.71484375 C37.74376185 47.77251333 36.76930837 45.1955886 36 42 C32.99686252 40.49843126 30.20932478 40.90718796 26.875 40.9375 C25.59367187 40.94652344 24.31234375 40.95554688 22.9921875 40.96484375 C22.00476563 40.97644531 21.01734375 40.98804688 20 41 Z " fill="#0C0C0C" transform="translate(221,214)"/>
<path d="M0 0 C5.99330141 5.71059852 9.15204527 11.80318236 10.6875 19.875 C7.27147985 20.04946934 3.85660363 20.15589623 0.4375 20.25 C-1.01462891 20.32541016 -1.01462891 20.32541016 -2.49609375 20.40234375 C-5.22359987 20.45877491 -7.64275146 20.44429929 -10.3125 19.875 C-12.78515625 16.97265625 -12.78515625 16.97265625 -14.3125 13.875 C-19.79696863 10.54130338 -24.24922428 10.40476961 -30.3125 11.875 C-33.67760995 13.26493672 -34.99311486 14.43446877 -37.125 17.375 C-39.18290724 23.44041082 -39.21904996 29.33666011 -37.0625 35.375 C-34.54831413 38.9666941 -32.45220343 40.49509886 -28.3125 41.875 C-22.72830827 42.24117651 -19.08602202 42.1296741 -14.3125 38.875 C-13.8175 37.8540625 -13.3225 36.833125 -12.8125 35.78125 C-10.3125 32.875 -10.3125 32.875 -8.02441406 32.38720703 C-5.18281517 32.28377324 -2.40205141 32.35253994 0.4375 32.5 C1.91283203 32.54060547 1.91283203 32.54060547 3.41796875 32.58203125 C5.84337423 32.65267413 8.26431945 32.75123881 10.6875 32.875 C8.88470108 42.35605427 5.35925426 49.43954558 -2.31640625 55.59375 C-11.90795014 61.75035743 -22.93789696 63.27472119 -34.0703125 61.4140625 C-43.79177131 58.82370514 -51.12069447 53.48905677 -56.3125 44.875 C-61.16558554 35.66365332 -61.85382238 24.64723529 -59.1875 14.625 C-55.77755044 4.92942914 -50.1793271 -1.03129082 -41.3125 -6.125 C-38.125 -7.5 -38.125 -7.5 -35.3125 -8.125 C-33.7965625 -8.4653125 -33.7965625 -8.4653125 -32.25 -8.8125 C-19.92755602 -9.79047174 -9.59837837 -8.01280554 0 0 Z " fill="#101010" transform="translate(410.3125,221.125)"/>
<path d="M0 0 C6.6 0 13.2 0 20 0 C24.49959681 8.99919362 24.49959681 8.99919362 25.82763672 12.52563477 C26.12830048 13.31748672 26.42896423 14.10933868 26.73873901 14.92518616 C27.04925201 15.75553879 27.35976501 16.58589142 27.6796875 17.44140625 C28.01493439 18.32674545 28.35018127 19.21208466 28.69558716 20.12425232 C29.75938411 22.93551262 30.81749778 25.74886651 31.875 28.5625 C33.26618814 32.25207501 34.66002911 35.9406418 36.0546875 39.62890625 C36.39006531 40.5180069 36.72544312 41.40710754 37.07098389 42.32315063 C39.60403279 49.01706183 42.25047342 55.65822353 44.97314453 62.27709961 C46 65 46 65 46 67 C38.74 67 31.48 67 24 67 C23.01 64.36 22.02 61.72 21 59 C10.11 58.505 10.11 58.505 -1 58 C-1.99 60.97 -2.98 63.94 -4 67 C-11.26 67 -18.52 67 -26 67 C-21.51540121 53.95723068 -16.58729925 41.13211367 -11.48461914 28.31958008 C-10.16941166 25.01707999 -8.85874879 21.71280336 -7.54882812 18.40820312 C-6.71379742 16.30458596 -5.87852042 14.20106654 -5.04296875 12.09765625 C-4.65135056 11.11136734 -4.25973236 10.12507843 -3.85624695 9.10890198 C-3.49529434 8.2029277 -3.13434174 7.29695343 -2.76245117 6.36352539 C-2.44523605 5.56652725 -2.12802094 4.76952911 -1.80119324 3.94837952 C-1 2 -1 2 0 0 Z M10 25 C9.73445313 25.66386719 9.46890625 26.32773438 9.1953125 27.01171875 C6 35 6 35 4.8671875 37.64453125 C3.8272555 40.05087318 3.8272555 40.05087318 4 43 C8.29 43 12.58 43 17 43 C15.02 37.06 13.04 31.12 11 25 C10.67 25 10.34 25 10 25 Z " fill="#0D0D0D" transform="translate(102,214)"/>
<path d="M0 0 C0.66 0.33 1.32 0.66 2 1 C-0.31 3.31 -2.62 5.62 -5 8 C-5.66 7.67 -6.32 7.34 -7 7 C-4.78071806 4.09197539 -3.07030857 2.04687238 0 0 Z " fill="#686868" transform="translate(364,218)"/>
</svg>
